<?xml version="1.0" encoding="utf-8"?>
<!-- Generator: Adobe Illustrator 26.2.1, SVG Export Plug-In . SVG Version: 6.00 Build 0)  -->
<svg version="1.1" id="Warstwa_1" xmlns="http://www.w3.org/2000/svg" xmlns:xlink="http://www.w3.org/1999/xlink" x="0px" y="0px"
	 viewBox="0 0 430 430" style="enable-background:new 0 0 430 430;" xml:space="preserve">
<style type="text/css">
	.st0{fill:#FFFFFF;}
	.st1{fill:#ebe6ef;}
	.st2{opacity:0.5;fill:#ebe6ef;}
	.st3{fill:#4bb3fd;}
	.st4{fill:#646e78;}
	.st5{opacity:0.5;fill:#646e78;}
	.st6{opacity:0.5;fill:#4bb3fd;}
	.st7{fill:#121331;}
	.st8{fill:none;stroke:#121331;stroke-width:7;stroke-linecap:round;stroke-linejoin:round;stroke-miterlimit:10;}
	.st9{fill:#F24C00;}
	.st10{fill:#F9C9C0;}
	.st11{fill:#92140c;}
	.st12{opacity:0.5;fill:#92140c;}
	.st13{fill:#3a3347;}
	.st14{fill:#2CA58D;}
	.st15{opacity:0.5;fill:#2CA58D;}
	.st16{opacity:0.5;fill:#F9C9C0;}
	.st17{fill:#ffc738;}
	.st18{opacity:0.5;fill:#ffc738;}
	.st19{fill:#B26836;}
	.st20{opacity:0.5;fill:#B26836;}
	.st21{opacity:0.5;fill:#3a3347;}
	.st22{opacity:0.5;}
	.st23{opacity:0.34;fill:#646e78;}
	.st24{opacity:0.5;fill:#F24C00;}
	.st25{fill:none;stroke:#4bb3fd;stroke-width:7;stroke-linecap:round;stroke-linejoin:round;stroke-miterlimit:10;}
	.st26{fill:#F28BA8;}
	.st27{opacity:0.5;fill:#F28BA8;}
	.st28{fill:none;}
</style>
<path class="st13" d="M308.7,215.7l11.4,0c22.1,0,41.9,9.6,55.6,24.8c11.9,13.2,19.2,30.8,19.2,50v16.6c0,1.7-1.3,3-3,3h-52.7
	c0,17.6-14.3,32-31.9,32c-17.6,0-31.9-14.3-31.9-31.9H146.1c0,17.6-14.3,31.9-31.9,31.9c-17.6,0-31.9-14.3-31.9-32H30.9
	c-1.7,0-3-1.3-3-3v-38.9c0-29,23.5-52.4,52.4-52.4L308.7,215.7z"/>
<path class="st21" d="M99.9,215.7l2,0c-28.9,0-52.4,23.5-52.4,52.4v42H30.9c-1.7,0-3-1.3-3-3v-39c0-28.9,23.5-52.4,52.4-52.4l-2,0"
	/>
<path class="st3" d="M200.6,132.6h-40V97.1c0-4.9,4-8.9,9-8.9h22c5,0,9,4,9,8.9V132.6z"/>
<path class="st6" d="M183.6,88.1c-5,0-9,4-9,8.9v35.5h-14.1V97.1c0-4.9,4-8.9,9-8.9H183.6z"/>
<circle class="st4" cx="114.2" cy="310.1" r="31.9"/>
<circle class="st4" cx="307.2" cy="310.1" r="31.9"/>
<path class="st5" d="M123.5,340.7c-2.9,0.9-6.1,1.4-9.3,1.4c-17.6,0-31.9-14.3-31.9-32c0-17.6,14.3-32,31.9-32
	c3.2,0,6.4,0.5,9.3,1.4c-13.1,4-22.7,16.2-22.7,30.6C100.8,324.5,110.4,336.7,123.5,340.7z"/>
<path class="st5" d="M316.5,340.7c-2.9,0.9-6.1,1.4-9.3,1.4c-17.7,0-32-14.3-32-32c0-17.6,14.3-32,32-32c3.2,0,6.3,0.5,9.3,1.4
	c-13.1,4-22.7,16.2-22.7,30.6C293.9,324.5,303.4,336.7,316.5,340.7z"/>
<path class="st1" d="M308.7,215.8H78.3l23.1-75.7c1.8-7.1,10-12.2,19.5-12.2h114.5c7.5,0,14.4,3.2,17.7,8.3l13.8,19.7L308.7,215.8z"
	/>
<path class="st2" d="M142.4,127.9c-9.5,0-17.7,5.1-19.5,12.2l-23.1,75.7H78.3l23.1-75.7c1.8-7.1,10-12.2,19.5-12.2H142.4z"/>
<polygon class="st3" points="308.7,215.8 112.5,215.8 127.8,155.9 266.9,155.9 "/>
<polygon class="st6" points="120.7,183.5 153,215.8 112.5,215.8 "/>
<polygon class="st6" points="195.5,155.9 195.5,196.5 155,155.9 "/>
<polygon class="st6" points="195.5,164 247.2,215.8 195.5,215.8 "/>
<polygon class="st6" points="307.7,214.4 249.2,155.9 266.9,155.9 "/>
<path class="st17" d="M393.1,274.3h-32.3c-9.3,0-16.9-7.6-16.9-16.9c0-4.7,1.9-8.9,4.9-12c3.1-3.1,7.3-5,12-5h14.9
	C384.2,249.9,390.3,261.5,393.1,274.3z"/>
<path class="st18" d="M373.6,274.3h-12.7c-9.4,0-16.9-7.6-16.9-16.9c0-4.7,1.9-8.9,5-12c3.1-3.1,7.3-5,12-5h12.7
	c-4.7,0-8.9,1.9-12,5c-3.1,3.1-5,7.3-5,12C356.6,266.7,364.2,274.3,373.6,274.3z"/>
<path class="st17" d="M214.7,266.8c-0.7,0.7-1,1.7-0.9,2.7l0.6,3.3l1.3,7.4c0.4,2.4-2,4.2-4.2,3.2c-0.1,0-0.1,0-0.2-0.1l-9.6-5
	c-0.9-0.5-1.9-0.5-2.8,0l-9.6,5c0,0-0.1,0-0.1,0.1c-2.2,1-4.6-0.8-4.2-3.2l1.8-10.6c0.2-1-0.2-2-0.9-2.7l-7.7-7.5
	c-1.8-1.7-0.8-4.8,1.7-5.1l7.2-1l3.4-0.5c1-0.2,1.8-0.8,2.3-1.7l4.8-9.7c1.1-2.2,4.3-2.2,5.4,0l4.8,9.7c0.4,0.9,1.3,1.5,2.3,1.6
	l10.7,1.5c2.5,0.4,3.4,3.4,1.7,5.1L214.7,266.8z"/>
<path class="st18" d="M211.5,283.3l-9.7-5.1c-0.9-0.5-1.9-0.5-2.8,0l-9.7,5.1c-2.2,1-4.6-0.8-4.2-3.2l1.8-10.6c0.2-1-0.2-2-0.9-2.7
	l-7.7-7.5c-1.8-1.7-0.8-4.8,1.7-5.1l7.2-1l4.9,4.8c0.7,0.7,1,1.7,0.9,2.7l-1.8,10.6c-0.4,2.5,2.1,4.3,4.4,3.2l9.6-5
	c0.9-0.5,1.9-0.5,2.8,0l6.5,3.4l1.3,7.4C216.1,282.5,213.7,284.3,211.5,283.3z"/>
<path class="st17" d="M54.5,275.9H27.9c-1.9,0-3.5-1.6-3.5-3.5s1.6-3.5,3.5-3.5h26.6c1.9,0,3.5,1.6,3.5,3.5S56.4,275.9,54.5,275.9z"
	/>
<path class="st1" d="M199,155.8v60h-7v-60c0-1.9,1.6-3.5,3.5-3.5C197.4,152.3,199,153.9,199,155.8z"/>
<path class="st13" d="M114.1,316.1L114.1,316.1c-3.3,0-6-2.7-6-6s2.7-6,6-6s6,2.7,6,6S117.4,316.1,114.1,316.1z"/>
<path class="st13" d="M307.2,316.1L307.2,316.1c-3.3,0-6-2.7-6-6s2.7-6,6-6s6,2.7,6,6S310.5,316.1,307.2,316.1z"/>
<path class="st11" d="M107.6,110.8c-1.2,0-2.4-0.6-3-1.8c-1-1.7-0.4-3.8,1.3-4.8l18.4-10.6c1.7-1,3.8-0.4,4.8,1.3
	c1,1.7,0.4,3.8-1.3,4.8l-18.4,10.6C108.8,110.6,108.2,110.8,107.6,110.8z"/>
<path class="st11" d="M126,76.1c-0.6,0-1.2-0.2-1.7-0.5L105.9,65c-1.7-1-2.2-3.1-1.3-4.8c1-1.7,3.1-2.2,4.8-1.3l18.4,10.6
	c1.7,1,2.2,3.1,1.3,4.8C128.4,75.4,127.2,76.1,126,76.1z"/>
<path class="st11" d="M254,110.2c-0.6,0-1.2-0.2-1.7-0.5l-18.4-10.6c-1.7-1-2.2-3.1-1.3-4.8c1-1.7,3.1-2.2,4.8-1.3l18.4,10.6
	c1.7,1,2.2,3.1,1.3,4.8C256.4,109.5,255.2,110.2,254,110.2z"/>
<path class="st11" d="M235.7,75.4c-1.2,0-2.4-0.6-3-1.8c-1-1.7-0.4-3.8,1.3-4.8l18.4-10.6c1.7-1,3.8-0.4,4.8,1.3
	c1,1.7,0.4,3.8-1.3,4.8L237.4,75C236.9,75.3,236.3,75.4,235.7,75.4z"/>
</svg>
